<svg width="80" height="81" viewBox="0 0 80 81" fill="none" xmlns="http://www.w3.org/2000/svg">
<path d="M18 20.5742C16.4087 20.5742 14.8826 21.2064 13.7574 22.3316C12.6321 23.4568 12 24.9829 12 26.5742V50.5742C12 52.1655 12.6321 53.6916 13.7574 54.8169C14.8826 55.9421 16.4087 56.5742 18 56.5742H62C63.5913 56.5742 65.1174 55.9421 66.2426 54.8169C67.3679 53.6916 68 52.1655 68 50.5742V26.5742C68 24.9829 67.3679 23.4568 66.2426 22.3316C65.1174 21.2064 63.5913 20.5742 62 20.5742H18ZM10 60.5742C9.46957 60.5742 8.96086 60.7849 8.58579 61.16C8.21071 61.5351 8 62.0438 8 62.5742C8 63.1047 8.21071 63.6134 8.58579 63.9884C8.96086 64.3635 9.46957 64.5742 10 64.5742H70C70.5304 64.5742 71.0391 64.3635 71.4142 63.9884C71.7893 63.6134 72 63.1047 72 62.5742C72 62.0438 71.7893 61.5351 71.4142 61.16C71.0391 60.7849 70.5304 60.5742 70 60.5742H10Z" fill="white"/>
</svg>
