<svg width="159" height="33" viewBox="0 0 159 33" fill="none" xmlns="http://www.w3.org/2000/svg">
<g clip-path="url(#clip0_4476_12279)">
<path d="M158.521 15.5214C158.45 15.6158 158.345 15.6419 158.315 15.7042C158.11 16.133 157.794 16.2519 157.313 16.2491C153.511 16.2271 149.709 16.2384 145.907 16.2394C145.724 16.2395 145.542 16.2394 145.358 16.2394C145.412 16.6516 145.388 17.0708 145.532 17.4212C145.742 17.9348 146.049 18.4158 146.362 18.8786C146.572 19.1883 146.844 19.4646 147.123 19.7166C147.774 20.3033 148.592 20.5695 149.378 20.9253C150.272 21.3301 151.165 21.2328 152.019 21.1354C152.57 21.0725 153.242 21.0317 153.744 20.5924C153.924 20.4352 154.221 20.4147 154.462 20.3229C154.591 20.2734 154.754 20.2376 154.833 20.14C155.296 19.5641 155.93 19.7638 156.506 19.7715C156.963 19.7776 157.408 20.6173 157.317 21.0624C157.183 21.7187 156.746 22.0191 156.184 22.253C155.906 22.3689 155.665 22.57 155.4 22.7205C155.244 22.8091 155.074 22.8717 154.912 22.9502C154.511 23.1452 154.11 23.3423 153.71 23.5394C153.663 23.5626 153.62 23.6121 153.573 23.6149C152.353 23.6879 151.133 23.7797 149.912 23.8126C149.501 23.8236 149.018 23.7896 148.693 23.5814C148.359 23.3672 147.85 23.4642 147.66 23.0097C147.647 22.9776 147.568 22.9695 147.518 22.9566C146.807 22.7741 145.708 22.1607 145.266 21.578C144.89 21.082 144.286 20.7475 144.154 20.0687C144.146 20.0238 144.037 20 143.978 19.9627C143.528 19.6807 143.491 19.1699 143.314 18.7418C143.098 18.2216 143.075 17.6267 142.681 17.1726C142.624 17.107 142.652 16.9624 142.652 16.8543C142.648 15.7725 142.583 14.6856 142.671 13.6112C142.715 13.0683 143.037 12.548 143.233 12.0173C143.258 11.9504 143.288 11.8836 143.299 11.8141C143.431 10.9815 143.771 10.2752 144.422 9.70207C144.7 9.45751 144.809 9.02595 145.08 8.76896C145.614 8.2627 146.176 7.77159 146.789 7.36749C147.147 7.1309 147.616 7.0311 148.05 6.94527C149.155 6.72689 150.251 6.36639 151.4 6.55084C152.016 6.64983 152.629 6.78458 153.234 6.93802C155.216 7.4403 156.594 8.69146 157.505 10.4771C157.718 10.8952 157.698 11.4975 158.003 11.7888C158.477 12.2425 158.111 12.8267 158.475 13.2565C158.521 13.9973 158.521 14.7335 158.521 15.5214ZM152.512 13.9214C153.659 13.9214 154.806 13.9214 156.057 13.9214C155.708 12.9769 155.531 12.0537 155.058 11.3195C154.388 10.2771 153.33 9.48296 152.16 9.16943C150.271 8.66326 148.45 9.24617 147.047 10.5242C146.142 11.3488 145.471 12.5092 145.403 13.9214C147.785 13.9214 150.093 13.9214 152.512 13.9214Z" fill="white"/>
<path d="M23.8443 0.046875C24.2533 0.347379 24.6386 0.620843 24.9622 0.954068C25.6176 1.6291 26.2987 2.29192 26.8645 3.03887C28.6156 5.35068 29.9488 7.91441 31.2229 10.5073C31.6296 11.335 31.9826 12.189 32.4057 13.1326C26.5082 11.0396 20.4484 10.3594 14.2539 10.0415C14.4351 9.6046 14.5736 9.18194 14.7778 8.79374C15.7083 7.02473 16.6039 5.2341 17.616 3.51218C18.4733 2.05374 19.5934 0.814795 21.2782 0.24374C21.3226 0.228708 21.351 0.166781 21.3734 0.0867996C22.1709 0.0468754 22.9818 0.0468754 23.8443 0.046875Z" fill="white"/>
<path d="M139.616 0.046875C140.086 0.396636 139.997 0.877588 139.998 1.33372C139.998 7.04013 139.972 12.7468 140.027 18.4527C140.034 19.2628 140.225 20.1901 141.004 20.7148C141.429 21.0011 141.915 21.2918 142.49 21.1898C143.008 21.0981 143.395 21.321 143.593 21.7628C143.828 22.2874 143.544 22.9943 143.226 23.3502C142.983 23.6225 142.743 23.6036 142.466 23.6072C141.988 23.6134 141.51 23.6108 141.032 23.6127C140.4 23.6152 140.261 23.3523 139.594 23.0461C139.053 22.7975 138.878 22.3298 138.491 22.0143C138.224 21.7961 138.084 21.4174 137.902 21.102C137.134 19.7733 137.491 18.3155 137.48 16.917C137.437 11.6513 137.466 6.38508 137.454 1.11906C137.453 0.724205 137.475 0.375442 137.799 0.0804633C138.383 0.046875 138.974 0.046875 139.616 0.046875Z" fill="white"/>
<path d="M0.93015 32.2686C0.854106 32.4403 0.778061 32.6121 0.721775 32.8203C0.308739 32.8894 0.61835 32.5513 0.521017 32.3614C0.605039 32.2792 0.689062 32.2521 0.829883 32.2266C0.90117 32.2416 0.91566 32.2551 0.93015 32.2686Z" fill="white"/>
<path d="M0.867188 32.2068C1.46773 31.0396 2.06776 29.88 2.71708 28.7485C3.93621 26.6241 5.17586 24.5113 6.42181 22.4025C7.7137 20.2159 9.02406 18.0402 10.3238 15.8582C10.4812 15.594 10.6228 15.3204 10.8249 14.9551C8.65312 13.9221 6.3072 13.7302 4.02192 13.154C4.88254 13.0057 5.73822 12.7835 6.6049 12.7256C8.06519 12.6282 9.5326 12.6001 10.9967 12.6063C13.2648 12.6159 15.4703 13.0737 17.6484 13.6653C20.4316 14.4213 23.0752 15.5281 25.6186 16.8793C28.2545 18.2797 30.7337 19.9148 33.1101 21.7224C35.8673 23.8197 38.3998 26.1576 40.7863 28.6553C41.8042 29.7207 42.7264 30.8772 43.6889 31.9951C43.719 32.03 43.7139 32.0952 43.7606 32.3055C43.4919 32.0671 43.3147 31.919 43.1476 31.7603C41.6006 30.2917 40.0893 28.7834 38.5012 27.3606C36.3941 25.4726 34.0199 23.9554 31.5004 22.677C29.1553 21.4871 26.67 20.6629 24.0626 20.3337C21.925 20.0639 19.7768 20.103 17.6309 20.4955C15.5024 20.8848 13.4945 21.5886 11.5836 22.5579C9.78454 23.4704 8.15534 24.6441 6.59566 25.9371C4.40235 27.7555 2.60113 29.8968 0.959505 32.2424C0.9179 32.2541 0.90341 32.2406 0.867188 32.2068Z" fill="white"/>
<path d="M74.4908 29.0018C74.4908 29.1837 74.4908 29.3657 74.4908 29.5888C74.4094 29.4943 74.3507 29.426 74.2047 29.2564C74.1915 29.5346 74.1803 29.7046 74.176 29.8748C74.1643 30.3367 73.8632 30.6428 73.4001 30.6564C73.2717 30.6602 73.1429 30.656 73.0143 30.6555C72.053 30.6519 71.5326 30.1298 71.532 29.1638C71.5286 24.0823 71.5222 19.0009 71.5349 13.9194C71.5355 13.686 71.7106 13.4538 71.8005 13.2195C71.8262 13.1526 71.8612 13.0773 71.8526 13.0109C71.7382 12.1257 72.4085 11.5295 72.6692 10.7835C72.9314 10.033 73.4042 9.40407 73.9794 8.89217C74.5211 8.41012 75.1713 8.04803 75.7824 7.64626C75.986 7.51242 76.2503 7.45744 76.4279 7.30008C76.9756 6.81479 77.7018 7.00481 78.3051 6.76238C79.2991 6.36292 80.3322 6.54594 81.3417 6.57358C82.0204 6.59216 82.7343 6.74895 83.3568 7.0181C84.0643 7.32395 84.6951 7.81244 85.3443 8.24406C85.6923 8.47548 86.0682 8.70588 86.3263 9.0223C86.769 9.56487 87.0882 10.2083 87.5346 10.7471C88.0488 11.3677 88.0754 12.1339 88.34 12.8213C88.8899 14.2496 88.5401 15.6705 88.5682 17.0834C88.5811 17.7296 88.1482 18.3895 87.8967 19.0352C87.4237 20.2497 86.556 21.171 85.6102 22.0262C85.4739 22.1494 85.2649 22.1887 85.1085 22.2947C84.9845 22.3786 84.9056 22.532 84.7787 22.6083C84.2517 22.925 83.6456 23.0872 83.1056 23.3387C81.8723 23.913 80.5948 23.9272 79.354 23.7648C78.8146 23.6943 78.1244 23.8413 77.605 23.3261C77.3558 23.079 76.8701 23.0734 76.496 22.9451C76.4064 22.9144 76.3345 22.8313 76.2555 22.7708C75.7157 22.3577 75.1767 21.9435 74.6344 21.5337C74.618 21.5213 74.5678 21.5534 74.4847 21.6282C74.3867 21.8821 74.2955 22.0725 74.2945 22.2633C74.2839 24.289 74.2814 26.3149 74.2964 28.3406C74.298 28.5615 74.423 28.7814 74.4908 29.0018ZM78.5912 9.40439C78.0521 9.19824 77.7178 9.71139 77.2524 9.8091C76.8752 9.88829 76.5313 10.2556 76.2375 10.5579C76.0186 10.7831 75.5469 10.8915 75.7149 11.3821C75.7229 11.4054 75.5919 11.4716 75.5308 11.5239C75.3793 11.6537 75.1377 11.7634 75.0971 11.923C74.9186 12.624 74.2994 13.1998 74.4984 14.0108C74.5232 14.1116 74.4716 14.2632 74.4026 14.3487C74.1963 14.604 74.0193 15.8206 74.2519 15.9477C74.6262 16.1521 74.4337 16.4532 74.5093 16.705C74.7008 17.3428 74.7908 18.0524 75.1418 18.5898C75.523 19.1737 76.1031 19.6671 76.6855 20.0722C77.6733 20.7591 78.7597 21.2545 80.0194 21.1845C80.4394 21.1612 80.8782 21.2295 81.2769 21.13C81.7816 21.0042 82.2463 20.7275 82.7421 20.5558C83.6324 20.2474 84.3908 19.8011 84.7664 18.877C84.8857 18.5834 84.9908 18.2658 85.1842 18.0245C85.5121 17.6151 85.7995 17.2145 85.7552 16.658C85.7467 16.5509 85.7537 16.432 85.7918 16.3334C86.1038 15.5259 86.0418 14.7164 85.8235 13.9036C85.6829 13.3801 85.5424 12.8567 85.4136 12.3773C85.283 12.3333 85.1269 12.3262 85.1008 12.2644C84.9598 11.9308 84.8918 11.5615 84.7208 11.2467C84.514 10.8659 84.28 10.5153 83.7918 10.3625C83.3271 10.217 82.8623 9.97239 82.4883 9.66226C82.0302 9.28234 81.4611 9.27274 80.957 9.11451C80.4222 8.94663 79.7922 9.05473 79.2067 9.09028C79.0253 9.1013 78.8534 9.26904 78.5912 9.40439Z" fill="white"/>
<path d="M120.928 20.8547C120.541 20.1945 120.153 19.5604 119.865 18.8839C119.667 18.4174 119.518 17.8824 119.322 17.4527C118.783 16.2673 119.128 15.0896 119.087 13.9232C119.065 13.3108 119.417 12.6786 119.632 12.0668C119.824 11.5212 119.989 10.9449 120.297 10.4661C120.695 9.84675 121.176 9.26137 121.709 8.75256C122.254 8.23179 122.87 7.76228 123.521 7.38308C123.958 7.12904 124.503 7.04891 125.009 6.93093C126.069 6.68401 127.132 6.39956 128.233 6.54946C129.126 6.67102 130.033 6.77581 130.89 7.03491C131.424 7.19636 131.838 7.74092 132.371 7.91936C133.382 8.258 133.845 9.16594 134.556 9.80907C134.791 10.0216 134.879 10.3928 135.045 10.6853C135.302 11.1376 135.568 11.5848 135.831 12.0334C135.848 12.0635 135.89 12.0847 135.897 12.1152C136.017 12.6656 136.23 13.2157 136.236 13.768C136.268 16.6642 136.25 19.561 136.246 22.4576C136.245 23.2429 135.884 23.5971 135.089 23.6071C134.887 23.6097 134.685 23.6105 134.483 23.6118C133.937 23.6154 133.501 23.1845 133.495 22.6235C133.489 22.0993 133.493 21.5749 133.493 21.1814C132.906 21.6439 132.293 22.1454 131.659 22.6194C131.204 22.9599 130.633 23.0877 130.142 23.3297C128.881 23.9517 127.565 23.9071 126.286 23.7627C125.785 23.7062 125.113 23.8542 124.625 23.3206C124.39 23.0632 123.875 23.0616 123.486 22.9429C123.436 22.9274 123.373 22.9172 123.34 22.882C122.624 22.1221 121.548 21.7825 120.928 20.8547ZM122.138 16.8445C121.936 17.5243 122.354 18.165 122.675 18.5363C123.054 18.974 123.357 19.5101 123.897 19.8899C125.02 20.6801 126.167 21.1943 127.54 21.1867C127.797 21.1852 128.054 21.1895 128.311 21.1851C128.531 21.1813 128.769 21.2213 128.966 21.1498C129.446 20.9754 129.92 20.7714 130.372 20.5348C130.841 20.2898 131.442 20.0936 131.697 19.6931C132.038 19.1553 132.542 18.7655 132.81 18.1194C133.151 17.3006 133.275 16.4565 133.46 15.6297C133.605 14.9777 133.436 14.2829 133.233 13.5851C133.03 12.8903 132.856 12.2407 132.399 11.6724C132.158 11.3729 131.995 11.0068 131.735 10.7277C131.565 10.5448 131.269 10.4857 131.058 10.3324C130.661 10.044 130.321 9.6521 129.888 9.44387C129.45 9.23267 128.935 9.14 128.444 9.08916C127.881 9.03084 127.307 9.07221 126.738 9.07819C126.612 9.0795 126.473 9.0854 126.365 9.13857C125.985 9.32454 125.635 9.63943 125.24 9.70726C124.586 9.81938 124.215 10.3268 123.708 10.6306C123.383 10.8258 123.19 11.2442 122.942 11.5664C122.717 11.8593 122.481 12.1459 122.285 12.4576C122.165 12.649 122.077 12.8762 122.037 13.0985C121.993 13.3467 122.079 13.6266 122.005 13.8597C121.69 14.8473 121.637 15.8106 122.138 16.8445Z" fill="white"/>
<path d="M90.175 10.2501C90.3519 9.83449 90.5027 9.45501 90.7034 9.10395C90.9011 8.75803 91.1403 8.43398 91.3819 8.11603C91.4416 8.03753 91.5786 8.01052 91.6855 7.97701C91.7861 7.94548 91.9814 7.94747 91.9853 7.91615C92.0529 7.37228 92.5824 7.31782 92.91 7.08062C93.1332 6.91896 93.5076 6.98469 93.7903 6.88226C94.9618 6.4577 96.1768 6.54037 97.3837 6.55551C97.6302 6.5586 97.8705 6.72483 98.1216 6.77832C98.4352 6.84512 98.7599 6.85916 99.0748 6.9209C99.6033 7.02448 100.034 7.33438 100.503 7.57399C101.157 7.90772 101.614 8.44006 102.153 8.88289C102.794 9.40965 102.824 10.3939 102.292 11.0116C102.224 11.09 102.102 11.1535 101.999 11.163C101.762 11.1849 101.519 11.145 101.284 11.1746C100.891 11.2241 100.585 11.1132 100.305 10.8283C99.8112 10.3265 99.1752 10.0423 98.5811 9.6836C97.6533 9.12333 96.719 9.0566 95.7217 9.08075C95.4128 9.08824 95.0443 8.95441 94.8602 9.36679C94.846 9.3987 94.7629 9.40693 94.7102 9.4137C93.7662 9.53488 93.2501 10.2066 92.8403 10.9486C92.5603 11.4554 93.3042 12.6464 93.8464 12.9454C94.3282 13.2112 94.9487 13.0958 95.3433 13.5582C95.401 13.6259 95.5898 13.5769 95.7167 13.5923C96.0375 13.6313 96.4262 13.4486 96.6342 13.8754C96.6532 13.9142 96.7695 13.9071 96.841 13.9187C97.7604 14.0678 98.736 14.0776 99.5781 14.4174C100.081 14.6203 100.82 14.5755 101.118 15.2717C101.198 15.4599 101.526 15.5474 101.746 15.6705C102.342 16.0033 102.521 16.5957 102.775 17.1739C103.116 17.9514 103.116 18.7506 103.042 19.5435C102.988 20.1233 102.851 20.7178 102.406 21.1832C102.105 21.4985 101.914 22.0606 101.571 22.1616C101.035 22.3193 100.901 22.9473 100.279 22.9897C99.853 23.0187 99.4493 23.3712 99.0347 23.5772C99.0032 23.5929 98.9647 23.5991 98.929 23.6013C97.671 23.6782 96.4136 23.7826 95.1544 23.8157C94.6632 23.8286 94.1588 23.7155 93.677 23.5943C93.3151 23.5033 92.9797 23.3076 92.5797 23.1358C92.5797 23.1637 92.6104 23.002 92.5751 22.9861C92.0328 22.7411 91.4908 22.4904 90.9309 22.2906C90.1098 21.9975 89.3293 20.8611 89.5382 20.0106C89.6213 19.6723 90.0082 19.3416 90.3389 19.1456C90.8965 18.8152 91.867 19.1978 92.2743 19.7057C92.5901 20.0994 92.9412 20.4802 93.5348 20.5697C94.0053 20.6406 94.446 20.9078 94.9006 21.0862C94.9972 21.1241 95.0963 21.1837 95.1947 21.1846C96.0028 21.192 96.8556 21.3485 97.6062 21.1407C98.3068 20.9467 99.1391 20.9122 99.6864 20.3112C99.8978 20.0791 100.029 19.7738 100.194 19.5006C100.284 19.3534 100.389 19.2112 100.448 19.0521C100.496 18.9256 100.547 18.7323 100.487 18.6456C100.142 18.1531 99.7959 17.6541 99.3848 17.2191C99.1841 17.0067 98.8478 16.9132 98.5618 16.7918C97.6818 16.4184 96.7558 16.3004 95.8119 16.1708C95.3618 16.1091 94.8855 15.904 94.3901 15.895C94.2956 15.239 93.5574 15.8257 93.2593 15.2823C93.0718 14.9403 92.3124 14.9555 91.8949 14.6811C91.5467 14.4523 91.109 14.2716 91.0106 13.7093C90.9423 13.3193 90.5919 12.9802 90.3766 12.6131C90.2943 12.4728 90.1836 12.3197 90.1783 12.1692C90.1566 11.5464 90.1702 10.9223 90.175 10.2501Z" fill="white"/>
<path d="M68.7711 22.8461C68.3099 23.8339 68.6092 23.662 66.9284 23.5727C65.8795 23.5169 66.3695 22.4838 66.1874 21.8912C65.6031 22.2536 65.048 22.6002 64.4904 22.9428C64.1571 23.1476 63.8201 23.3467 63.4838 23.5468C63.4381 23.5741 63.3882 23.6101 63.3385 23.613C62.1489 23.6831 60.9596 23.7746 59.7688 23.8026C59.3469 23.8125 58.7608 23.8096 58.5349 23.5576C58.1962 23.1797 57.6071 23.5184 57.378 22.9825C57.3052 22.8122 56.9466 22.7336 56.7038 22.6718C56.0211 22.4981 55.6196 21.9768 55.1883 21.4941C54.8282 21.0912 54.4691 20.6836 54.153 20.2467C53.9904 20.0219 53.8764 19.7382 53.8204 19.4647C53.638 18.574 53.3731 17.6782 53.3548 16.78C53.2957 13.8831 53.3513 10.9841 53.3206 8.08629C53.3123 7.30587 53.5093 6.95612 54.3961 6.77076C54.831 6.67985 55.5899 6.96962 55.767 7.331C55.8486 7.49757 55.8641 7.70935 55.8646 7.90073C55.8704 10.5237 55.8599 13.1467 55.8801 15.7695C55.8824 16.0672 56.0479 16.3633 56.1349 16.6609C56.1598 16.746 56.1989 16.8364 56.1904 16.9202C56.0986 17.8254 56.4821 18.5549 56.9893 19.264C57.2216 19.5886 57.2489 20.0772 57.6767 20.2458C58.2697 20.4796 58.9529 20.5566 59.4694 20.8954C60.2465 21.4052 61.0485 21.1393 61.8301 21.1592C62.3262 21.1719 62.8342 20.9411 63.3265 20.7866C63.5697 20.7104 63.7924 20.5652 64.0194 20.4419C64.7282 20.0569 65.2573 19.5568 65.6296 18.7838C66.0199 17.9734 66.2488 17.1926 66.2413 16.299C66.2183 13.5479 66.2327 10.7964 66.2331 8.04499C66.2333 7.05405 66.5888 6.68771 67.5655 6.76689C68.1466 6.81401 68.7885 6.85899 68.8666 7.73456C68.8652 7.90187 68.8663 8.00179 68.8533 8.14303C68.8158 8.43809 68.7724 8.6918 68.7721 8.94557C68.7679 13.004 68.7673 17.0625 68.7732 21.1209C68.7736 21.3917 68.8322 21.6623 68.8561 21.9777C68.8226 22.2969 68.7969 22.5715 68.7711 22.8461Z" fill="white"/>
<path d="M103.503 16.1124C103.503 15.5817 103.551 15.0989 103.493 14.6292C103.356 13.5259 103.749 12.5023 104 11.4775C104.153 10.8538 104.674 10.3137 105.055 9.75369C105.737 8.75402 106.775 8.13277 107.671 7.36375C107.892 7.17492 108.211 7.05151 108.502 7.00357C109.685 6.80869 110.838 6.34805 112.07 6.54336C112.969 6.68583 113.907 6.7257 114.751 7.02534C115.374 7.24664 115.834 7.89622 116.444 8.19896C116.923 8.43703 117.205 8.81635 117.558 9.15567C117.965 9.54669 118.345 10.0216 118.127 10.5601C117.975 10.9377 117.548 11.3035 117.157 11.4645C116.451 11.7548 115.979 11.2417 115.518 10.7701C115.258 10.5049 114.923 10.3126 114.616 10.0954C114.327 9.89102 114.031 9.69732 113.739 9.4981C113.709 9.47807 113.687 9.44248 113.656 9.43056C112.632 9.04353 111.535 8.87605 110.503 9.11938C109.204 9.42573 108.119 10.2435 107.211 11.2246C106.949 11.507 106.848 11.9482 106.709 12.3295C106.515 12.8589 106.509 13.5095 106.29 13.9408C106.008 14.4962 106.081 14.9902 106.057 15.5091C106.045 15.7527 106.234 16.0025 106.315 16.255C106.352 16.3725 106.339 16.5052 106.366 16.6274C106.482 17.1618 106.507 17.7451 106.75 18.2156C107.039 18.7747 107.475 19.2776 107.923 19.7303C108.532 20.3453 109.401 20.5199 110.141 20.9073C110.943 21.327 111.724 21.1734 112.502 21.1616C113.495 21.1465 114.47 20.7877 115.241 20.2018C115.734 19.8273 116.184 19.8213 116.707 19.733C117.377 19.6197 117.575 20.0995 117.806 20.4831C118.027 20.8482 117.748 21.5596 117.405 21.8336C117.247 21.9593 117.137 22.1526 116.968 22.2541C116.551 22.5044 116.114 22.7217 115.683 22.9477C115.289 23.1544 114.892 23.3559 114.495 23.5575C114.448 23.5816 114.394 23.6037 114.342 23.6069C113.122 23.6812 111.898 23.8308 110.681 23.7945C109.99 23.7739 109.245 23.5651 108.637 23.2348C107.4 22.5628 106.11 21.9204 105.228 20.7552C104.921 20.3485 104.775 19.8426 104.298 19.5318C104.097 19.4006 104.03 19.0115 103.971 18.7255C103.796 17.8762 103.657 17.0199 103.503 16.1124Z" fill="white"/>
<path d="M68.8126 22.8246C68.7983 22.5707 68.824 22.2962 68.8611 21.9273C68.8712 17.2556 68.8701 12.6783 68.8689 8.10095C68.8677 8.00103 68.8666 7.90111 68.8776 7.77344C68.9234 7.91525 68.9865 8.08479 68.9867 8.2544C68.992 12.9188 68.9925 17.5832 68.9851 22.2476C68.9848 22.4331 68.8988 22.6184 68.8126 22.8246Z" fill="white"/>
<path d="M74.4958 28.9503C74.4223 28.7811 74.2973 28.5612 74.2957 28.3403C74.2807 26.3146 74.2832 24.2888 74.2938 22.263C74.2948 22.0722 74.386 21.8819 74.4612 21.6602C74.4919 24.0524 74.4966 26.4757 74.4958 28.9503Z" fill="white"/>
<path d="M44.0372 32.4531C44.0871 32.5123 44.1371 32.5715 44.187 32.6307C44.1705 32.652 44.154 32.6734 44.1375 32.6947C44.0851 32.6599 44.0328 32.625 43.9883 32.5419C44.0098 32.48 44.0235 32.4666 44.0372 32.4531Z" fill="white"/>
<path d="M43.9752 32.5105C43.9138 32.4814 43.8729 32.4321 43.832 32.3828C43.8853 32.3889 43.9385 32.395 44.0143 32.4255C44.0231 32.4634 44.0094 32.4768 43.9752 32.5105Z" fill="white"/>
<path d="M68.8579 8.14453C68.8732 12.6806 68.8744 17.2579 68.872 21.8849C68.8368 21.6638 68.7782 21.3932 68.7778 21.1224C68.7719 17.064 68.7724 13.0055 68.7767 8.94707C68.7769 8.69331 68.8204 8.43959 68.8579 8.14453Z" fill="white"/>
</g>
<defs>
<clipPath id="clip0_4476_12279">
<rect width="158" height="32.8087" fill="white" transform="translate(0.5 0.046875)"/>
</clipPath>
</defs>
</svg>
