<svg width="36" height="35" viewBox="0 0 36 35" fill="none" xmlns="http://www.w3.org/2000/svg">
<path d="M33.3125 21.8751C33.3147 20.7799 33.0428 19.7015 32.5215 18.7383C32.0002 17.7751 31.2461 16.9576 30.328 16.3605C29.4099 15.7634 28.3569 15.4055 27.265 15.3196C26.1732 15.2336 25.0772 15.4223 24.0769 15.8684C23.0767 16.3145 22.204 17.0039 21.5384 17.8736C20.8728 18.7434 20.4355 19.7659 20.2663 20.848C20.0971 21.9301 20.2014 23.0373 20.5697 24.0688C20.938 25.1002 21.5587 26.023 22.375 26.7532V35.0001L26.75 32.9285L31.125 35.0001V26.7532C31.8126 26.14 32.3629 25.3885 32.7399 24.5478C33.1169 23.7072 33.312 22.7964 33.3125 21.8751ZM28.9375 31.5438L26.75 30.508L24.5625 31.5438V28.0548C25.9761 28.5653 27.5238 28.5653 28.9375 28.0548V31.5438ZM26.75 26.2501C25.8847 26.2501 25.0388 25.9935 24.3194 25.5128C23.5999 25.032 23.0391 24.3487 22.708 23.5493C22.3769 22.7499 22.2902 21.8702 22.4591 21.0216C22.6279 20.1729 23.0445 19.3933 23.6564 18.7815C24.2683 18.1696 25.0478 17.753 25.8965 17.5841C26.7451 17.4153 27.6248 17.502 28.4242 17.8331C29.2237 18.1642 29.9069 18.725 30.3877 19.4445C30.8684 20.1639 31.125 21.0098 31.125 21.8751C31.1235 23.035 30.6621 24.1469 29.842 24.9671C29.0218 25.7872 27.9099 26.2486 26.75 26.2501Z" fill="#3F85EC"/>
<path d="M27.8438 5.46875H24.5625V4.375C24.5608 3.79537 24.3297 3.23998 23.9199 2.83012C23.51 2.42026 22.9546 2.18923 22.375 2.1875H13.625C13.0454 2.18923 12.49 2.42026 12.0801 2.83012C11.6703 3.23998 11.4392 3.79537 11.4375 4.375V5.46875H8.15625C7.57662 5.47048 7.02123 5.70151 6.61137 6.11137C6.20151 6.52123 5.97048 7.07662 5.96875 7.65625V30.625C5.97048 31.2046 6.20151 31.76 6.61137 32.1699C7.02123 32.5797 7.57662 32.8108 8.15625 32.8125H18V30.625H8.15625V7.65625H11.4375V10.9375H24.5625V7.65625H27.8438V13.125H30.0312V7.65625C30.0295 7.07662 29.7985 6.52123 29.3886 6.11137C28.9788 5.70151 28.4234 5.47048 27.8438 5.46875ZM22.375 8.75H13.625V4.375H22.375V8.75Z" fill="#3F85EC"/>
</svg>
