<svg width="44" height="44" viewBox="0 0 44 44" fill="none" xmlns="http://www.w3.org/2000/svg">
<path d="M10.0827 12.8333C10.0827 11.6178 10.5656 10.452 11.4251 9.59243C12.2847 8.73289 13.4504 8.25 14.666 8.25C15.8816 8.25 17.0474 8.73289 17.9069 9.59243C18.7665 10.452 19.2493 11.6178 19.2493 12.8333C19.2493 14.0489 18.7665 15.2147 17.9069 16.0742C17.0474 16.9338 15.8816 17.4167 14.666 17.4167C13.4504 17.4167 12.2847 16.9338 11.4251 16.0742C10.5656 15.2147 10.0827 14.0489 10.0827 12.8333ZM14.666 5.5C12.7211 5.5 10.8558 6.27262 9.48057 7.64788C8.1053 9.02315 7.33268 10.8884 7.33268 12.8333C7.33268 14.7783 8.1053 16.6435 9.48057 18.0188C10.8558 19.394 12.7211 20.1667 14.666 20.1667C16.6109 20.1667 18.4762 19.394 19.8515 18.0188C21.2267 16.6435 21.9993 14.7783 21.9993 12.8333C21.9993 10.8884 21.2267 9.02315 19.8515 7.64788C18.4762 6.27262 16.6109 5.5 14.666 5.5ZM28.416 14.6667C28.416 13.9373 28.7057 13.2378 29.2215 12.7221C29.7372 12.2064 30.4367 11.9167 31.166 11.9167C31.8954 11.9167 32.5948 12.2064 33.1106 12.7221C33.6263 13.2378 33.916 13.9373 33.916 14.6667C33.916 15.396 33.6263 16.0955 33.1106 16.6112C32.5948 17.1269 31.8954 17.4167 31.166 17.4167C30.4367 17.4167 29.7372 17.1269 29.2215 16.6112C28.7057 16.0955 28.416 15.396 28.416 14.6667ZM31.166 9.16667C29.7073 9.16667 28.3084 9.74613 27.2769 10.7776C26.2455 11.809 25.666 13.208 25.666 14.6667C25.666 16.1254 26.2455 17.5243 27.2769 18.5558C28.3084 19.5872 29.7073 20.1667 31.166 20.1667C32.6247 20.1667 34.0237 19.5872 35.0551 18.5558C36.0866 17.5243 36.666 16.1254 36.666 14.6667C36.666 13.208 36.0866 11.809 35.0551 10.7776C34.0237 9.74613 32.6247 9.16667 31.166 9.16667ZM7.79102 23.8333C6.697 23.8333 5.64779 24.2679 4.8742 25.0415C4.10061 25.8151 3.66602 26.8643 3.66602 27.9583V28.468C3.66817 28.5955 3.67674 28.7227 3.69168 28.8493C3.84308 30.2135 4.33341 31.5181 5.11802 32.6443C6.61768 34.7857 9.48135 36.6667 14.666 36.6667C17.1758 36.6667 19.1412 36.2267 20.672 35.53C20.3935 34.6062 20.2285 33.652 20.1807 32.6883C18.9982 33.385 17.2565 33.9167 14.666 33.9167C10.2257 33.9167 8.27502 32.3583 7.36935 31.0658C6.85554 30.3254 6.53248 29.4696 6.42885 28.5743C6.42332 28.5262 6.41904 28.4779 6.41602 28.4295V27.9583C6.41602 27.5937 6.56088 27.2439 6.81874 26.9861C7.07661 26.7282 7.42634 26.5833 7.79102 26.5833H21.508C21.9645 25.7088 22.5255 24.8985 23.1745 24.1688C22.6586 23.9466 22.1027 23.8324 21.541 23.8333H7.79102ZM42.166 32.0833C42.166 34.7576 41.1037 37.3223 39.2127 39.2133C37.3217 41.1043 34.7569 42.1667 32.0827 42.1667C29.4084 42.1667 26.8437 41.1043 24.9527 39.2133C23.0617 37.3223 21.9993 34.7576 21.9993 32.0833C21.9993 29.4091 23.0617 26.8443 24.9527 24.9533C26.8437 23.0623 29.4084 22 32.0827 22C34.7569 22 37.3217 23.0623 39.2127 24.9533C41.1037 26.8443 42.166 29.4091 42.166 32.0833ZM33.1002 26.4367C33.0372 26.2153 32.9039 26.0206 32.7202 25.8819C32.5366 25.7432 32.3128 25.6681 32.0827 25.6681C31.8526 25.6681 31.6287 25.7432 31.4451 25.8819C31.2615 26.0206 31.1281 26.2153 31.0652 26.4367L30.044 29.7147H26.7385C25.7008 29.7147 25.2718 31.097 26.1097 31.7313L28.7827 33.7572L27.7615 37.0333C27.4407 38.0618 28.57 38.918 29.4097 38.2818L32.0827 36.2578L34.7557 38.2818C35.5954 38.918 36.7247 38.0618 36.4039 37.0352L35.3827 33.7572L38.0557 31.7332C38.8953 31.097 38.4645 29.7147 37.4269 29.7147H34.1213L33.1002 26.4367Z" fill="#3F85EC"/>
</svg>
