<svg width="45" height="44" viewBox="0 0 45 44" fill="none" xmlns="http://www.w3.org/2000/svg">
<path d="M28.0007 7.3335C31.8905 7.3335 35.621 8.87873 38.3716 11.6293C41.1221 14.3798 42.6673 18.1103 42.6673 22.0002C42.6673 25.89 41.1221 29.6205 38.3716 32.3711C35.621 35.1216 31.8905 36.6668 28.0007 36.6668C24.1108 36.6668 20.3803 35.1216 17.6298 32.3711C14.8792 29.6205 13.334 25.89 13.334 22.0002C13.334 18.1103 14.8792 14.3798 17.6298 11.6293C20.3803 8.87873 24.1108 7.3335 28.0007 7.3335ZM28.0007 11.0002C25.0833 11.0002 22.2854 12.1591 20.2225 14.222C18.1596 16.2849 17.0007 19.0828 17.0007 22.0002C17.0007 24.9175 18.1596 27.7154 20.2225 29.7783C22.2854 31.8412 25.0833 33.0002 28.0007 33.0002C30.918 33.0002 33.7159 31.8412 35.7788 29.7783C37.8417 27.7154 39.0006 24.9175 39.0006 22.0002C39.0006 19.0828 37.8417 16.2849 35.7788 14.222C33.7159 12.1591 30.918 11.0002 28.0007 11.0002ZM26.1673 14.6668H28.9173V21.5968L33.189 25.8685L31.2457 27.8118L26.1673 22.7335V14.6668ZM4.16732 33.0002C3.68109 33.0002 3.21477 32.807 2.87096 32.4632C2.52714 32.1194 2.33398 31.6531 2.33398 31.1668C2.33398 30.6806 2.52714 30.2143 2.87096 29.8705C3.21477 29.5266 3.68109 29.3335 4.16732 29.3335H11.189C11.7573 30.6352 12.4907 31.8635 13.334 33.0002H4.16732ZM6.00065 23.8335C5.51442 23.8335 5.04811 23.6403 4.70429 23.2965C4.36047 22.9527 4.16732 22.4864 4.16732 22.0002C4.16732 21.5139 4.36047 21.0476 4.70429 20.7038C5.04811 20.36 5.51442 20.1668 6.00065 20.1668H9.75898L9.66732 22.0002L9.75898 23.8335H6.00065ZM7.83398 14.6668C7.34775 14.6668 6.88144 14.4737 6.53762 14.1299C6.1938 13.786 6.00065 13.3197 6.00065 12.8335C6.00065 12.3473 6.1938 11.881 6.53762 11.5371C6.88144 11.1933 7.34775 11.0002 7.83398 11.0002H13.334C12.4907 12.1368 11.7573 13.3652 11.189 14.6668H7.83398Z" fill="#3F85EC"/>
</svg>
