<svg width="44" height="44" viewBox="0 0 44 44" fill="none" xmlns="http://www.w3.org/2000/svg">
<path d="M31.9257 19.0923C33 18.018 33 16.291 33 12.8333C33 9.37567 33 7.64867 31.9257 6.57433M31.9257 19.0923C30.8513 20.1667 29.1243 20.1667 25.6667 20.1667H18.3333C14.8757 20.1667 13.1487 20.1667 12.0743 19.0923M31.9257 6.57433C30.8513 5.5 29.1243 5.5 25.6667 5.5H18.3333C14.8757 5.5 13.1487 5.5 12.0743 6.57433M12.0743 6.57433C11 7.64867 11 9.37567 11 12.8333C11 16.291 11 18.018 12.0743 19.0923M23.8333 12.8333C23.8333 13.3196 23.6402 13.7859 23.2964 14.1297C22.9525 14.4735 22.4862 14.6667 22 14.6667C21.5138 14.6667 21.0475 14.4735 20.7036 14.1297C20.3598 13.7859 20.1667 13.3196 20.1667 12.8333C20.1667 12.3471 20.3598 11.8808 20.7036 11.537C21.0475 11.1932 21.5138 11 22 11C22.4862 11 22.9525 11.1932 23.2964 11.537C23.6402 11.8808 23.8333 12.3471 23.8333 12.8333Z" stroke="#3F85EC" stroke-width="1.5"/>
<path d="M32.9993 11C31.5407 11 30.1417 10.4205 29.1103 9.38909C28.0788 8.35764 27.4993 6.95869 27.4993 5.5M32.9993 14.6667C31.5407 14.6667 30.1417 15.2461 29.1103 16.2776C28.0788 17.309 27.4993 18.708 27.4993 20.1667M10.9993 11C12.458 11 13.857 10.4205 14.8884 9.38909C15.9199 8.35764 16.4993 6.95869 16.4993 5.5M10.9993 14.6667C12.458 14.6667 13.857 15.2461 14.8884 16.2776C15.9199 17.309 16.4993 18.708 16.4993 20.1667M9.16602 37.378H13.3093C15.161 37.378 17.0365 37.5723 18.8387 37.9427C22.0562 38.6037 25.3667 38.677 28.6103 38.159C30.2017 37.9023 31.7637 37.5082 33.179 36.8262C34.455 36.2083 36.0188 35.3412 37.0693 34.3677C38.118 33.396 39.2107 31.8065 39.9843 30.5635C40.6517 29.4965 40.329 28.1893 39.2767 27.3955C38.6853 26.9654 37.9729 26.7337 37.2417 26.7337C36.5104 26.7337 35.798 26.9654 35.2067 27.3955L31.8938 29.898C30.6105 30.8697 29.208 31.7625 27.5378 32.0283C27.3362 32.0595 27.1253 32.0888 26.9053 32.1145M26.9053 32.1145C26.8382 32.1223 26.771 32.1296 26.7037 32.1365M26.9053 32.1145C27.1988 32.0351 27.4678 31.8839 27.6882 31.6745C27.9644 31.4355 28.19 31.1436 28.3516 30.816C28.5133 30.4884 28.6076 30.1317 28.6291 29.7671C28.6507 29.4024 28.5989 29.0371 28.477 28.6928C28.3551 28.3484 28.1654 28.032 27.9192 27.7622C27.6803 27.4969 27.402 27.27 27.0942 27.0893C21.9663 24.0295 13.9858 26.3597 9.16602 29.7788M26.9053 32.1145C26.8391 32.1289 26.7715 32.1363 26.7037 32.1365M26.7037 32.1365C25.598 32.2476 24.4841 32.2501 23.378 32.1438" stroke="#3F85EC" stroke-width="1.5" stroke-linecap="round"/>
<path d="M9.16602 28.4165C9.16602 26.8977 7.9348 25.6665 6.41602 25.6665C4.89723 25.6665 3.66602 26.8977 3.66602 28.4165V37.5832C3.66602 39.102 4.89723 40.3332 6.41602 40.3332C7.9348 40.3332 9.16602 39.102 9.16602 37.5832V28.4165Z" stroke="#3F85EC" stroke-width="1.5"/>
</svg>
