<svg width="36" height="45" viewBox="0 0 36 45" fill="none" xmlns="http://www.w3.org/2000/svg">
<path d="M9.54464 10.3471C8.6405 10.3471 7.75666 10.0883 7.00489 9.60326C6.25313 9.11827 5.66719 8.42893 5.32119 7.62241C4.97519 6.8159 4.88466 5.92843 5.06105 5.07224C5.23744 4.21605 5.67283 3.42958 6.31215 2.8123C6.95148 2.19502 7.76603 1.77465 8.6528 1.60434C9.53957 1.43404 10.4587 1.52144 11.2941 1.85551C12.1294 2.18958 12.8433 2.75531 13.3456 3.48115C13.848 4.207 14.1161 5.06036 14.1161 5.93333C14.1161 7.10394 13.6344 8.2266 12.7771 9.05435C11.9198 9.8821 10.7571 10.3471 9.54464 10.3471ZM9.54464 3.72643C9.09257 3.72643 8.65065 3.85586 8.27477 4.09836C7.89888 4.34086 7.60592 4.68553 7.43292 5.08878C7.25992 5.49204 7.21465 5.93577 7.30285 6.36387C7.39104 6.79197 7.60874 7.1852 7.9284 7.49384C8.24806 7.80248 8.65534 8.01266 9.09872 8.09782C9.54211 8.18297 10.0017 8.13927 10.4193 7.97223C10.837 7.8052 11.194 7.52233 11.4451 7.15941C11.6963 6.79649 11.8304 6.36981 11.8304 5.93333C11.8304 5.34802 11.5895 4.78669 11.1609 4.37281C10.7322 3.95894 10.1509 3.72643 9.54464 3.72643ZM27.8304 10.3471C26.9262 10.3471 26.0424 10.0883 25.2906 9.60326C24.5388 9.11827 23.9529 8.42893 23.6069 7.62241C23.2609 6.8159 23.1704 5.92843 23.3468 5.07224C23.5232 4.21605 23.9585 3.42958 24.5979 2.8123C25.2372 2.19502 26.0517 1.77465 26.9385 1.60434C27.8253 1.43404 28.7444 1.52144 29.5798 1.85551C30.4151 2.18958 31.129 2.75531 31.6314 3.48115C32.1337 4.207 32.4018 5.06036 32.4018 5.93333C32.4018 7.10394 31.9202 8.2266 31.0628 9.05435C30.2055 9.8821 29.0428 10.3471 27.8304 10.3471ZM27.8304 3.72643C27.3783 3.72643 26.9364 3.85586 26.5605 4.09836C26.1846 4.34086 25.8916 4.68553 25.7186 5.08878C25.5456 5.49204 25.5004 5.93577 25.5886 6.36387C25.6768 6.79197 25.8945 7.1852 26.2141 7.49384C26.5338 7.80248 26.9411 8.01266 27.3844 8.09782C27.8278 8.18297 28.2874 8.13927 28.7051 7.97223C29.1227 7.8052 29.4797 7.52233 29.7309 7.15941C29.982 6.79649 30.1161 6.36981 30.1161 5.93333C30.1161 5.34802 29.8753 4.78669 29.4466 4.37281C29.0179 3.95894 28.4366 3.72643 27.8304 3.72643ZM30.1161 33.5195H25.5446C24.9384 33.5195 24.3571 33.287 23.9284 32.8731C23.4997 32.4593 23.2589 31.8979 23.2589 31.3126V23.5885H25.5446V31.3126H30.1161V21.3816H32.4018V14.7609C32.4018 14.4683 32.2814 14.1876 32.0671 13.9807C31.8527 13.7737 31.562 13.6575 31.2589 13.6575H23.9218L18.6875 22.4851L13.4532 13.6575H6.11607C5.81297 13.6575 5.52228 13.7737 5.30795 13.9807C5.09362 14.1876 4.97321 14.4683 4.97321 14.7609V21.3816H7.25893V31.3126H11.8304V23.5885H14.1161V31.3126C14.1161 31.8979 13.8753 32.4593 13.4466 32.8731C13.0179 33.287 12.4366 33.5195 11.8304 33.5195H7.25893C6.65272 33.5195 6.07134 33.287 5.64268 32.8731C5.21403 32.4593 4.97321 31.8979 4.97321 31.3126V23.5885C4.36701 23.5885 3.78562 23.356 3.35697 22.9421C2.92832 22.5282 2.6875 21.9669 2.6875 21.3816V14.7609C2.6875 13.883 3.04872 13.041 3.69171 12.4201C4.33469 11.7993 5.20676 11.4506 6.11607 11.4506H14.7789L18.6875 18.0713L22.5961 11.4506H31.2589C32.1682 11.4506 33.0403 11.7993 33.6833 12.4201C34.3263 13.041 34.6875 13.883 34.6875 14.7609V21.3816C34.6875 21.9669 34.4467 22.5282 34.018 22.9421C33.5894 23.356 33.008 23.5885 32.4018 23.5885V31.3126C32.4018 31.8979 32.161 32.4593 31.7323 32.8731C31.3037 33.287 30.7223 33.5195 30.1161 33.5195Z" fill="#187CFF"/>
</svg>
