<svg width="37" height="33" viewBox="0 0 37 33" fill="none" xmlns="http://www.w3.org/2000/svg">
<g clip-path="url(#clip0_5325_12179)">
<path fill-rule="evenodd" clip-rule="evenodd" d="M9.76013 1.69141C9.07253 1.69141 8.41309 1.93724 7.92689 2.37482C7.44068 2.81241 7.16753 3.4059 7.16753 4.02474V24.0247C7.16753 24.577 6.67007 25.0247 6.05642 25.0247C5.44277 25.0247 4.94531 24.577 4.94531 24.0247V4.02474C4.94531 2.87547 5.45259 1.77327 6.35554 0.96061C7.25849 0.147953 8.48316 -0.308594 9.76013 -0.308594C10.3738 -0.308594 10.8712 0.139121 10.8712 0.691406C10.8712 1.24369 10.3738 1.69141 9.76013 1.69141Z" fill="#187CFF"/>
<path fill-rule="evenodd" clip-rule="evenodd" d="M25.6861 0.691406C25.6861 0.139121 26.1835 -0.308594 26.7972 -0.308594H29.7601C30.3738 -0.308594 30.8712 0.139121 30.8712 0.691406V27.3581C30.8712 27.9104 30.3738 28.3581 29.7601 28.3581H9.76013C8.48316 28.3581 7.25849 27.9015 6.35554 27.0889C5.45259 26.2762 4.94531 25.174 4.94531 24.0247C4.94531 22.8755 5.45259 21.7733 6.35554 20.9606C7.25849 20.148 8.48316 19.6914 9.76013 19.6914H28.649V1.69141H26.7972C26.1835 1.69141 25.6861 1.24369 25.6861 0.691406ZM28.649 21.6914H9.76013C9.07253 21.6914 8.41309 21.9372 7.92689 22.3748C7.44068 22.8124 7.16753 23.4059 7.16753 24.0247C7.16753 24.6436 7.44068 25.2371 7.92689 25.6747C8.41309 26.1122 9.07253 26.3581 9.76013 26.3581H28.649V21.6914ZM17.9083 6.35807C18.5219 6.35807 19.0194 6.80579 19.0194 7.35807V15.3581C19.0194 15.9104 18.5219 16.3581 17.9083 16.3581C17.2946 16.3581 16.7972 15.9104 16.7972 15.3581V7.35807C16.7972 6.80579 17.2946 6.35807 17.9083 6.35807Z" fill="#187CFF"/>
<path fill-rule="evenodd" clip-rule="evenodd" d="M17.1214 -0.0157005C17.5554 -0.406225 18.2589 -0.406225 18.6928 -0.0157005L23.1372 3.9843C23.5712 4.37482 23.5712 5.00799 23.1372 5.39851C22.7033 5.78904 21.9998 5.78904 21.5659 5.39851L17.9071 2.10562L14.2483 5.39851C13.8144 5.78904 13.1109 5.78904 12.677 5.39851C12.2431 5.00799 12.2431 4.37482 12.677 3.9843L17.1214 -0.0157005ZM17.9071 8.77229L14.2483 12.0652C13.8144 12.4557 13.1109 12.4557 12.677 12.0652C12.2431 11.6747 12.2431 11.0415 12.677 10.651L17.1214 6.65097C17.5554 6.26044 18.2589 6.26044 18.6928 6.65097L23.1372 10.651C23.5712 11.0415 23.5712 11.6747 23.1372 12.0652C22.7033 12.4557 21.9998 12.4557 21.5659 12.0652L17.9071 8.77229Z" fill="#187CFF"/>
<mask id="mask0_5325_12179" style="mask-type:alpha" maskUnits="userSpaceOnUse" x="0" y="-8" width="33" height="33">
<rect x="0.5" y="-7.1875" width="32" height="32" fill="#D9D9D9"/>
</mask>
<g mask="url(#mask0_5325_12179)">
</g>
</g>
<defs>
<clipPath id="clip0_5325_12179">
<rect width="35.5556" height="32" fill="white" transform="translate(0.5 0.144531)"/>
</clipPath>
</defs>
</svg>
