<svg width="33" height="41" viewBox="0 0 33 41" fill="none" xmlns="http://www.w3.org/2000/svg">
<g clip-path="url(#clip0_5325_12166)">
<path d="M11.6383 24.2235H13.6962L14.8394 21.1537H19.7172L20.8605 24.2235H22.9945L18.3453 12.2438H16.2113L11.6383 24.2235ZM15.4491 19.4317L17.2021 14.49H17.3545L19.1075 19.4317H15.4491ZM17.2783 33.957C15.1697 33.957 13.1881 33.5637 11.3335 32.777C9.4789 31.9904 7.86567 30.9237 6.49378 29.577C5.1219 28.2292 4.03608 26.6444 3.23632 24.8225C2.43656 23.0006 2.03617 21.0539 2.03516 18.9824C2.03516 17.9092 2.14948 16.8545 2.37813 15.8183C2.60677 14.782 2.93704 13.7777 3.36893 12.8054L5.73162 15.1265C5.52838 15.7754 5.36934 16.4178 5.25451 17.0537C5.13968 17.6896 5.08277 18.3325 5.08379 18.9824C5.08379 22.3267 6.26513 25.1594 8.62782 27.4805C10.9905 29.8016 13.874 30.9621 17.2783 30.9621C20.6826 30.9621 23.5661 29.8016 25.9288 27.4805C28.2915 25.1594 29.4728 22.3267 29.4728 18.9824C29.4728 15.6381 28.2915 12.8054 25.9288 10.4843C23.5661 8.16327 20.6826 7.00273 17.2783 7.00273C16.5924 7.00273 15.9252 7.05864 15.2769 7.17045C14.6285 7.28226 13.9873 7.4385 13.3532 7.63915L11.0286 5.35553C12.0448 4.90629 13.061 4.56936 14.0773 4.34474C15.0935 4.12012 16.1605 4.00781 17.2783 4.00781C19.387 4.00781 21.3686 4.40065 23.2232 5.18631C25.0777 5.97198 26.691 7.03917 28.0629 8.38789C29.4347 9.7356 30.5211 11.3204 31.3218 13.1423C32.1226 14.9642 32.5225 16.9109 32.5215 18.9824C32.5215 21.0539 32.1211 23.0006 31.3203 24.8225C30.5195 26.6444 29.4337 28.2292 28.0629 29.577C26.691 30.9247 25.0777 31.9919 23.2232 32.7785C21.3686 33.5652 19.387 33.958 17.2783 33.957ZM7.37026 11.4951C6.73513 11.4951 6.19501 11.2765 5.74991 10.8392C5.30481 10.402 5.08277 9.87187 5.08379 9.24893C5.08379 8.62498 5.30634 8.09438 5.75144 7.65712C6.19654 7.21987 6.73615 7.00174 7.37026 7.00273C8.00539 7.00273 8.54551 7.22136 8.99061 7.65862C9.43571 8.09588 9.65775 8.62598 9.65674 9.24893C9.65674 9.87287 9.43419 10.4035 8.98909 10.8407C8.54399 11.278 8.00438 11.4961 7.37026 11.4951Z" fill="#187CFF"/>
</g>
<defs>
<clipPath id="clip0_5325_12166">
<rect width="33" height="41" fill="white" transform="translate(-0.5 0.8125)"/>
</clipPath>
</defs>
</svg>
