<svg width="36" height="30" viewBox="0 0 36 30" fill="none" xmlns="http://www.w3.org/2000/svg">
<path d="M29.5789 12.3122H31.1276C31.9011 12.3122 32.643 12.6195 33.19 13.1665C33.737 13.7135 34.0443 14.4554 34.0443 15.2289V21.0622C34.0443 21.8358 33.737 22.5776 33.19 23.1246C32.643 23.6716 31.9011 23.9789 31.1276 23.9789H29.5789C29.2233 26.7983 27.8511 29.391 25.7197 31.2706C23.5884 33.1501 20.8443 34.1872 18.0026 34.1872V31.2706C20.3232 31.2706 22.5488 30.3487 24.1898 28.7078C25.8307 27.0668 26.7526 24.8412 26.7526 22.5206V13.7706C26.7526 11.4499 25.8307 9.22433 24.1898 7.58338C22.5488 5.94244 20.3232 5.02057 18.0026 5.02057C15.682 5.02057 13.4564 5.94244 11.8154 7.58338C10.1745 9.22433 9.2526 11.4499 9.2526 13.7706V23.9789H4.8776C4.10406 23.9789 3.36219 23.6716 2.81521 23.1246C2.26823 22.5776 1.96094 21.8358 1.96094 21.0622V15.2289C1.96094 14.4554 2.26823 13.7135 2.81521 13.1665C3.36219 12.6195 4.10406 12.3122 4.8776 12.3122H6.42635C6.78223 9.49312 8.1546 6.90076 10.2859 5.02155C12.4173 3.14235 15.1611 2.10547 18.0026 2.10547C20.8441 2.10547 23.5879 3.14235 25.7193 5.02155C27.8506 6.90076 29.223 9.49312 29.5789 12.3122ZM4.8776 15.2289V21.0622H6.33594V15.2289H4.8776ZM29.6693 15.2289V21.0622H31.1276V15.2289H29.6693ZM11.8193 23.6654L13.3651 21.192C14.755 22.0627 16.3625 22.5232 18.0026 22.5206C19.6427 22.5232 21.2502 22.0627 22.6401 21.192L24.1859 23.6654C22.3328 24.8264 20.1894 25.4406 18.0026 25.4372C15.8158 25.4407 13.6724 24.8265 11.8193 23.6654Z" fill="#187CFF"/>
</svg>
