<svg width="25" height="24" viewBox="0 0 25 24" fill="none" xmlns="http://www.w3.org/2000/svg">
<path d="M5.083 17.3222C4.053 16.2282 3.5 15.0012 3.5 13.0122C3.5 9.51222 5.957 6.37522 9.53 4.82422L10.423 6.20222C7.088 8.00622 6.436 10.3472 6.176 11.8232C6.713 11.5452 7.416 11.4482 8.105 11.5122C9.909 11.6792 11.331 13.1602 11.331 15.0012C11.331 15.9295 10.9623 16.8197 10.3059 17.4761C9.6495 18.1325 8.75926 18.5012 7.831 18.5012C7.31766 18.4967 6.81034 18.3902 6.33856 18.1878C5.86679 17.9854 5.43999 17.6911 5.083 17.3222ZM15.083 17.3222C14.053 16.2282 13.5 15.0012 13.5 13.0122C13.5 9.51222 15.957 6.37522 19.53 4.82422L20.423 6.20222C17.088 8.00622 16.436 10.3472 16.176 11.8232C16.713 11.5452 17.416 11.4482 18.105 11.5122C19.909 11.6792 21.331 13.1602 21.331 15.0012C21.331 15.9295 20.9623 16.8197 20.3059 17.4761C19.6495 18.1325 18.7593 18.5012 17.831 18.5012C17.3177 18.4967 16.8103 18.3902 16.3386 18.1878C15.8668 17.9854 15.44 17.6911 15.083 17.3222Z" fill="#3F85EC"/>
</svg>
