<svg width="32" height="33" viewBox="0 0 32 33" fill="none" xmlns="http://www.w3.org/2000/svg">
<path fill-rule="evenodd" clip-rule="evenodd" d="M26.7778 22.9231C27.3711 17.2209 27.3711 11.4724 26.7778 5.77017C26.5662 3.73677 24.2217 2.70676 22.581 3.92638L17.1095 7.99359C15.4422 9.23295 13.42 9.90221 11.3426 9.90221H6.23698C5.31651 9.90221 4.57031 10.6484 4.57031 11.5689V17.1244C4.57031 18.0449 5.3165 18.7911 6.23698 18.7911H7.06935L5.94221 22.9977C5.81661 23.4664 6.04569 23.9577 6.48551 24.1628L11.3937 26.4516C11.6616 26.5765 11.971 26.5765 12.2389 26.4516C12.5068 26.3266 12.7057 26.0896 12.7823 25.8041L14.4658 19.5208C14.4837 19.4541 14.4944 19.3871 14.4984 19.3207C15.4284 19.6419 16.3097 20.1052 17.1095 20.6997L22.581 24.7669C24.2217 25.9866 26.5662 24.9565 26.7778 22.9231ZM24.7885 5.97715C25.3675 11.5418 25.3675 17.1515 24.7885 22.7162C24.7374 23.2076 24.1707 23.4566 23.7741 23.1618L18.3026 19.0946C16.2904 17.5988 13.8498 16.7911 11.3426 16.7911L6.57031 16.7911L6.57031 11.9022H11.3426C13.8498 11.9022 16.2904 11.0945 18.3026 9.59871L23.7741 5.5315C24.1707 5.23671 24.7374 5.48567 24.7885 5.97715ZM12.5796 18.8706C12.1711 18.8178 11.7579 18.7911 11.3426 18.7911H9.1399L8.09123 22.7048L11.1589 24.1353L12.534 19.0032C12.5463 18.9573 12.5616 18.9131 12.5796 18.8706Z" fill="#187CFF"/>
</svg>
