<svg width="31" height="31" viewBox="0 0 31 31" fill="none" xmlns="http://www.w3.org/2000/svg">
<path d="M8 8.5586C7.25832 8.5586 6.5333 8.33866 5.91661 7.92661C5.29993 7.51455 4.81928 6.92888 4.53545 6.24366C4.25162 5.55844 4.17736 4.80444 4.32206 4.07701C4.46675 3.34958 4.8239 2.68139 5.34835 2.15694C5.8728 1.6325 6.54098 1.27535 7.26841 1.13065C7.99584 0.985956 8.74984 1.06022 9.43506 1.34405C10.1203 1.62788 10.706 2.10852 11.118 2.72521C11.5301 3.34189 11.75 4.06692 11.75 4.8086C11.75 5.80316 11.3549 6.75698 10.6517 7.46025C9.94839 8.16351 8.99456 8.5586 8 8.5586ZM8 2.9336C7.62916 2.9336 7.26665 3.04356 6.95831 3.24959C6.64996 3.45562 6.40964 3.74845 6.26773 4.09106C6.12581 4.43368 6.08868 4.81068 6.16103 5.17439C6.23337 5.5381 6.41195 5.8722 6.67417 6.13442C6.9364 6.39664 7.27049 6.57522 7.63421 6.64757C7.99792 6.71992 8.37492 6.68278 8.71753 6.54087C9.06014 6.39896 9.35298 6.15863 9.55901 5.85029C9.76503 5.54195 9.875 5.17944 9.875 4.8086C9.875 4.31131 9.67746 3.8344 9.32582 3.48277C8.97419 3.13114 8.49728 2.9336 8 2.9336ZM23 8.5586C22.2583 8.5586 21.5333 8.33866 20.9166 7.92661C20.2999 7.51455 19.8193 6.92888 19.5355 6.24366C19.2516 5.55844 19.1774 4.80444 19.3221 4.07701C19.4667 3.34958 19.8239 2.68139 20.3484 2.15694C20.8728 1.6325 21.541 1.27535 22.2684 1.13065C22.9958 0.985956 23.7498 1.06022 24.4351 1.34405C25.1203 1.62788 25.706 2.10852 26.118 2.72521C26.5301 3.34189 26.75 4.06692 26.75 4.8086C26.75 5.80316 26.3549 6.75698 25.6516 7.46025C24.9484 8.16351 23.9946 8.5586 23 8.5586ZM23 2.9336C22.6292 2.9336 22.2666 3.04356 21.9583 3.24959C21.65 3.45562 21.4096 3.74845 21.2677 4.09106C21.1258 4.43368 21.0887 4.81068 21.161 5.17439C21.2334 5.5381 21.412 5.8722 21.6742 6.13442C21.9364 6.39664 22.2705 6.57522 22.6342 6.64757C22.9979 6.71992 23.3749 6.68278 23.7175 6.54087C24.0601 6.39896 24.353 6.15863 24.559 5.85029C24.765 5.54195 24.875 5.17944 24.875 4.8086C24.875 4.31131 24.6775 3.8344 24.3258 3.48277C23.9742 3.13114 23.4973 2.9336 23 2.9336ZM24.875 28.2461H21.125C20.6277 28.2461 20.1508 28.0486 19.7992 27.6969C19.4475 27.3453 19.25 26.8684 19.25 26.3711V19.8086H21.125V26.3711H24.875V17.9336H26.75V12.3086C26.75 12.06 26.6512 11.8215 26.4754 11.6457C26.2996 11.4699 26.0611 11.3711 25.8125 11.3711H19.7938L15.5 18.8711L11.2063 11.3711H5.1875C4.93886 11.3711 4.7004 11.4699 4.52459 11.6457C4.34877 11.8215 4.25 12.06 4.25 12.3086V17.9336H6.125V26.3711H9.875V19.8086H11.75V26.3711C11.75 26.8684 11.5525 27.3453 11.2008 27.6969C10.8492 28.0486 10.3723 28.2461 9.875 28.2461H6.125C5.62772 28.2461 5.15081 28.0486 4.79917 27.6969C4.44754 27.3453 4.25 26.8684 4.25 26.3711V19.8086C3.75272 19.8086 3.27581 19.6111 2.92417 19.2594C2.57254 18.9078 2.375 18.4309 2.375 17.9336V12.3086C2.375 11.5627 2.67132 10.8473 3.19876 10.3199C3.72621 9.79241 4.44158 9.4961 5.1875 9.4961H12.2937L15.5 15.1211L18.7062 9.4961H25.8125C26.5584 9.4961 27.2738 9.79241 27.8012 10.3199C28.3287 10.8473 28.625 11.5627 28.625 12.3086V17.9336C28.625 18.4309 28.4275 18.9078 28.0758 19.2594C27.7242 19.6111 27.2473 19.8086 26.75 19.8086V26.3711C26.75 26.8684 26.5525 27.3453 26.2008 27.6969C25.8492 28.0486 25.3723 28.2461 24.875 28.2461Z" fill="#187CFF"/>
</svg>
