<svg width="32" height="33" viewBox="0 0 32 33" fill="none" xmlns="http://www.w3.org/2000/svg">
<path d="M21.8654 27.1471H4.7987C2.93203 27.1471 1.33203 25.5471 1.33203 23.6805V13.9471C1.33203 12.0805 2.93203 10.4805 4.7987 10.4805H21.8654C23.732 10.4805 25.332 12.0805 25.332 13.9471V23.6805C25.332 25.5471 23.732 27.1471 21.8654 27.1471ZM4.7987 13.1471C4.3987 13.1471 3.9987 13.5471 3.9987 13.9471V23.6805C3.9987 24.0805 4.3987 24.4805 4.7987 24.4805H21.8654C22.2654 24.4805 22.6654 24.0805 22.6654 23.6805V13.9471C22.6654 13.5471 22.2654 13.1471 21.8654 13.1471H4.7987Z" fill="#187CFF"/>
<path d="M29.3315 21.813C28.5315 21.813 27.9982 21.2797 27.9982 20.4797V9.27969C27.9982 8.74635 27.7315 8.34635 27.3315 8.34635H6.79818C5.99818 8.34635 5.46484 7.81302 5.46484 7.01302C5.46484 6.21302 5.99818 5.67969 6.79818 5.67969H27.3315C29.1982 5.67969 30.6649 7.27969 30.6649 9.27969V20.4797C30.6649 21.1464 30.1315 21.813 29.3315 21.813Z" fill="#187CFF"/>
<path d="M13.3331 23.0138C10.9331 23.0138 9.06641 21.1471 9.06641 18.7471C9.06641 16.3471 10.9331 14.4805 13.3331 14.4805C15.7331 14.4805 17.5998 16.3471 17.5998 18.7471C17.5998 21.1471 15.7331 23.0138 13.3331 23.0138ZM13.3331 17.2805C12.3997 17.2805 11.7331 17.9471 11.7331 18.8805C11.7331 19.8138 12.3997 20.3471 13.3331 20.3471C14.2664 20.3471 14.9331 19.6805 14.9331 18.7471C14.9331 17.8138 14.2664 17.2805 13.3331 17.2805Z" fill="#187CFF"/>
<path d="M6.5349 19.6792C7.05036 19.6792 7.46823 19.2613 7.46823 18.7458C7.46823 18.2304 7.05036 17.8125 6.5349 17.8125C6.01943 17.8125 5.60156 18.2304 5.60156 18.7458C5.60156 19.2613 6.01943 19.6792 6.5349 19.6792Z" fill="#187CFF"/>
<path d="M20.1326 19.6792C20.648 19.6792 21.0659 19.2613 21.0659 18.7458C21.0659 18.2304 20.648 17.8125 20.1326 17.8125C19.6171 17.8125 19.1992 18.2304 19.1992 18.7458C19.1992 19.2613 19.6171 19.6792 20.1326 19.6792Z" fill="#187CFF"/>
</svg>
