<svg width="33" height="34" viewBox="0 0 33 34" fill="none" xmlns="http://www.w3.org/2000/svg">
<path d="M27.8438 5.77734H5.15625C4.60924 5.77734 4.08464 5.99464 3.69784 6.38144C3.31105 6.76823 3.09375 7.29283 3.09375 7.83984V26.4023C3.09375 26.9494 3.31105 27.474 3.69784 27.8608C4.08464 28.2475 4.60924 28.4648 5.15625 28.4648H6.8823C7.07748 28.4649 7.26866 28.4096 7.43364 28.3053C7.59862 28.201 7.73062 28.0521 7.8143 27.8757C8.31577 26.817 9.1075 25.9224 10.0974 25.2959C11.0873 24.6694 12.2348 24.3369 13.4062 24.3369C14.5777 24.3369 15.7252 24.6694 16.7151 25.2959C17.705 25.9224 18.4967 26.817 18.9982 27.8757C19.0819 28.0521 19.2139 28.201 19.3789 28.3053C19.5438 28.4096 19.735 28.4649 19.9302 28.4648H27.8438C28.3908 28.4648 28.9154 28.2475 29.3022 27.8608C29.689 27.474 29.9062 26.9494 29.9062 26.4023V7.83984C29.9062 7.29283 29.689 6.76823 29.3022 6.38144C28.9154 5.99464 28.3908 5.77734 27.8438 5.77734ZM10.3125 19.1836C10.3125 18.5717 10.4939 17.9736 10.8339 17.4648C11.1738 16.956 11.657 16.5595 12.2223 16.3253C12.7876 16.0912 13.4097 16.0299 14.0098 16.1493C14.6099 16.2687 15.1612 16.5633 15.5939 16.996C16.0265 17.4287 16.3212 17.9799 16.4406 18.58C16.5599 19.1802 16.4987 19.8022 16.2645 20.3675C16.0303 20.9328 15.6338 21.416 15.125 21.756C14.6163 22.0959 14.0181 22.2773 13.4062 22.2773C12.5857 22.2773 11.7988 21.9514 11.2186 21.3712C10.6384 20.791 10.3125 20.0041 10.3125 19.1836ZM27.8438 26.4023H20.5515C19.6903 24.9218 18.3922 23.7438 16.8352 23.0302C17.6158 22.3351 18.1668 21.4191 18.415 20.4038C18.6632 19.3884 18.597 18.3216 18.2251 17.3448C17.8533 16.3679 17.1933 15.5271 16.3327 14.9339C15.4721 14.3407 14.4515 14.023 13.4062 14.023C12.361 14.023 11.3404 14.3407 10.4798 14.9339C9.61923 15.5271 8.95925 16.3679 8.58737 17.3448C8.21549 18.3216 8.14928 19.3884 8.39752 20.4038C8.64575 21.4191 9.1967 22.3351 9.97734 23.0302C8.42029 23.7438 7.12215 24.9218 6.26098 26.4023H5.15625V7.83984H27.8438V26.4023ZM7.21875 12.9961V10.9336C7.21875 10.6601 7.3274 10.3978 7.5208 10.2044C7.71419 10.011 7.9765 9.90234 8.25 9.90234H24.75C25.0235 9.90234 25.2858 10.011 25.4792 10.2044C25.6726 10.3978 25.7812 10.6601 25.7812 10.9336V23.3086C25.7812 23.5821 25.6726 23.8444 25.4792 24.0378C25.2858 24.2312 25.0235 24.3398 24.75 24.3398H22.6875C22.414 24.3398 22.1517 24.2312 21.9583 24.0378C21.7649 23.8444 21.6562 23.5821 21.6562 23.3086C21.6562 23.0351 21.7649 22.7728 21.9583 22.5794C22.1517 22.386 22.414 22.2773 22.6875 22.2773H23.7188V11.9648H9.28125V12.9961C9.28125 13.2696 9.1726 13.5319 8.9792 13.7253C8.78581 13.9187 8.5235 14.0273 8.25 14.0273C7.9765 14.0273 7.71419 13.9187 7.5208 13.7253C7.3274 13.5319 7.21875 13.2696 7.21875 12.9961Z" fill="#187CFF"/>
</svg>
